<svg width="70" height="48" viewBox="0 0 70 48" fill="none" xmlns="http://www.w3.org/2000/svg">
<rect x="0.5" y="0.5" width="69" height="47" rx="5.5" fill="white" stroke="#D9D9D9"/>
<mask id="mask0_552_210" style="mask-type:luminance" maskUnits="userSpaceOnUse" x="5" y="-7" width="60" height="64">
<path d="M5.5 -7H64.5V57H5.5V-7Z" fill="white"/>
</mask>
<g mask="url(#mask0_552_210)">
<path fill-rule="evenodd" clip-rule="evenodd" d="M55.4805 16.6695C54.795 16.6695 54.0388 17.0841 53.7372 17.8291L50.5327 25.7974L49.3784 17.8291C49.2427 17.0841 48.776 16.6695 48.0374 16.6695H43.9777L47.4501 29.9029C47.514 30.1567 47.5261 30.4381 47.4793 30.734C47.2976 31.8384 46.3251 32.7342 45.3066 32.7342H43.0332C42.4559 32.7342 42.0757 33.1221 41.8898 34.0004L41.3848 37.2798H45.3885C47.4772 37.2798 49.9303 36.1415 51.5666 32.9939L59.5833 16.6695H55.4805Z" fill="#323E48"/>
<path fill-rule="evenodd" clip-rule="evenodd" d="M16.0699 12.7202C17.2689 12.7202 17.8483 13.239 17.6373 14.5428L17.2919 16.6667H20.0465L19.4395 20.398H16.6836L15.9329 25.0178C15.6735 26.6274 17.1423 26.8418 17.9849 26.8418C18.1528 26.8418 18.2924 26.8377 18.3922 26.8314L17.7184 30.9922C17.5103 31.0163 17.296 31.0475 16.8424 31.0475C14.7511 31.0475 10.795 30.4399 11.5728 25.6527L12.4246 20.398H10.4165L11.021 16.6667H13.0095L13.6495 12.7202H16.0699Z" fill="#323E48"/>
<path fill-rule="evenodd" clip-rule="evenodd" d="M39.2182 16.8377L38.5105 21.188C39.3831 21.6715 39.981 22.6535 39.981 23.7877C39.981 25.2831 38.9475 26.5084 37.6169 26.6847L36.9097 31.0341C37.0346 31.0427 37.1616 31.0472 37.2881 31.0472C40.9865 31.0472 43.9818 27.7959 43.9818 23.7877C43.9818 20.5105 41.9757 17.7377 39.2182 16.8377Z" fill="#00ADBC"/>
<path fill-rule="evenodd" clip-rule="evenodd" d="M36.0681 26.3883C35.1963 25.9075 34.5972 24.921 34.5972 23.7881C34.5972 22.3022 35.6328 21.0674 36.9629 20.8942L37.6693 16.5444C37.5436 16.5358 37.4158 16.5295 37.29 16.5295C33.5946 16.5295 30.5977 19.7831 30.5977 23.7881C30.5977 27.0666 32.6045 29.8413 35.3621 30.7413L36.0681 26.3883Z" fill="#00ADBC"/>
<path fill-rule="evenodd" clip-rule="evenodd" d="M21.6412 16.6695H24.0081C25.2075 16.6695 25.7844 17.1893 25.573 18.4935L25.314 20.0713C26.1959 18.1296 28.1088 16.5277 30.0709 16.5277C30.3283 16.5277 30.576 16.583 30.576 16.583L29.8111 21.2876C29.8111 21.2876 29.4677 21.201 28.9317 21.201C27.8861 21.201 26.1177 21.5608 25.1336 23.692C24.8988 24.2172 24.7183 24.8562 24.5934 25.6261L23.737 30.9117H19.3276L21.6412 16.6695Z" fill="#323E48"/>
</g>
<path fill-rule="evenodd" clip-rule="evenodd" d="M59.5831 31.575C59.5831 31.9996 59.4444 32.3626 59.1678 32.6603C58.8942 32.959 58.5608 33.1121 58.1673 33.1121C57.778 33.1121 57.4446 32.959 57.1668 32.6603C56.8911 32.3626 56.752 31.9996 56.752 31.575C56.752 31.1518 56.8911 30.7897 57.1668 30.4888C57.4446 30.1906 57.778 30.0402 58.1673 30.0402C58.5608 30.0402 58.8942 30.1906 59.1678 30.4888C59.4444 30.7897 59.5831 31.1518 59.5831 31.575ZM59.3608 31.575C59.3608 31.938 59.2439 32.2466 59.0099 32.5008C58.7785 32.7569 58.4948 32.8842 58.1673 32.8842C57.8406 32.8842 57.5603 32.7569 57.3268 32.5008C57.0962 32.2466 56.9813 31.938 56.9813 31.575C56.9813 31.2134 57.0962 30.9057 57.3268 30.6501C57.5603 30.3932 57.8406 30.2659 58.1673 30.2659C58.4948 30.2659 58.7785 30.3932 59.0099 30.6501C59.2439 30.9057 59.3608 31.2134 59.3608 31.575ZM58.7626 32.4156H58.5111L58.1556 31.7287H57.9217V32.4156H57.7074V30.7322H58.2342C58.3699 30.7322 58.4856 30.7825 58.5805 30.8776C58.6744 30.9741 58.7246 31.0942 58.7246 31.2361C58.7246 31.4699 58.6118 31.6249 58.39 31.6983L58.7626 32.4156ZM58.5027 31.2361C58.5027 31.1518 58.4769 31.0811 58.4209 31.0235C58.3662 30.9664 58.2964 30.9393 58.2103 30.9393H57.9217V31.5297H58.2103C58.2964 31.5297 58.3662 31.5003 58.4209 31.4472C58.4769 31.3911 58.5027 31.3226 58.5027 31.2361Z" fill="#323E48"/>
</svg>
