<svg width="70" height="48" viewBox="0 0 70 48" fill="none" xmlns="http://www.w3.org/2000/svg">
<rect x="0.5" y="0.5" width="69" height="47" rx="5.5" fill="white" stroke="#D9D9D9"/>
<path fill-rule="evenodd" clip-rule="evenodd" d="M20.5006 33.4931H15.4811L11.717 19.0341C11.5384 18.369 11.159 17.781 10.601 17.5038C9.20849 16.8074 7.67399 16.2531 6 15.9736V15.4169H14.0861C15.2021 15.4169 16.0391 16.2531 16.1786 17.2243L18.1316 27.6541L23.1487 15.4169H28.0287L20.5006 33.4931ZM30.8187 33.4931H26.0782L29.9817 15.4169H34.7222L30.8187 33.4931ZM40.8553 20.4246C40.9948 19.451 41.8318 18.8943 42.8083 18.8943C44.3428 18.7545 46.0144 19.0341 47.4094 19.7281L48.2464 15.8362C46.8514 15.2795 45.3169 15 43.9243 15C39.3233 15 35.9753 17.5038 35.9753 20.9788C35.9753 23.6224 38.3468 25.0105 40.0208 25.8467C41.8318 26.6805 42.5293 27.2372 42.3898 28.071C42.3898 29.3217 40.9948 29.8784 39.6023 29.8784C37.9283 29.8784 36.2543 29.4615 34.7222 28.765L33.8852 32.6593C35.5592 33.3534 37.3703 33.6329 39.0443 33.6329C44.2033 33.7703 47.4094 31.2689 47.4094 27.5143C47.4094 22.7862 40.8553 22.5091 40.8553 20.4246V20.4246ZM64 33.4931L60.236 15.4169H56.1929C55.3559 15.4169 54.5189 15.9736 54.2399 16.8074L47.2698 33.4931H52.1499L53.1239 30.8519H59.12L59.678 33.4931H64ZM56.8904 20.2848L58.2829 27.0974H54.3794L56.8904 20.2848Z" fill="#172B85"/>
</svg>
